<svg xmlns="http://www.w3.org/2000/svg" width="805" height="600"><rect width="805" height="600" x="0" y="0" fill="#FFFFFF" id="backgorund"/><g transform="translate(10,10)" id="visualization"><g><rect x="780" y="0" height="11.505376344086017" width="5" fill="black"><title>ANTI-ISLAMIC(MUSLIM): 2</title></rect><rect x="780" y="16.505376344086017" height="11.505376344086017" width="5" fill="black"><title>ANTI-LGBT(MIXED GROUP): 2</title></rect><rect x="780" y="33.01075268817203" height="11.505376344086017" width="5" fill="black"><title>ANTI-TRANSGENDER: 2</title></rect><rect x="780" y="49.51612903225805" height="23.010752688172033" width="5" fill="black"><title>ANTI-FEMALE: 4</title></rect><rect x="780" y="77.52688172043008" height="28.7634408602151" width="5" fill="black"><title>ANTI-WHITE: 5</title></rect><rect x="390" y="12.5" height="34.516129032258064" width="5" fill="black"><title>BLACK HISPANIC: 6</title></rect><rect x="390" y="52.016129032258064" height="34.51612903225805" width="5" fill="black"><title>ASIAN / PACIFIC ISLANDER: 6</title></rect><rect x="780" y="111.29032258064518" height="34.51612903225805" width="5" fill="black"><title>OTHER: 6</title></rect><rect x="780" y="150.80645161290323" height="40.26881720430109" width="5" fill="black"><title>ANTI-BLACK: 7</title></rect><rect x="0" y="20" height="115.05376344086017" width="5" fill="black"><title>FEMALE: 20</title></rect><rect x="780" y="196.07526881720432" height="115.0537634408602" width="5" fill="black"><title>ANTI-ASIAN: 20</title></rect><rect x="780" y="316.1290322580645" height="115.05376344086022" width="5" fill="black"><title>ANTI-MALE HOMOSEXUAL(GAY): 20</title></rect><rect x="390" y="91.53225806451611" height="120.80645161290322" width="5" fill="black"><title>WHITE: 21</title></rect><rect x="390" y="217.33870967741933" height="143.8172043010752" width="5" fill="black"><title>WHITE HISPANIC: 25</title></rect><rect x="780" y="436.18279569892474" height="143.81720430107526" width="5" fill="black"><title>ANTI-JEWISH: 25</title></rect><rect x="390" y="366.15591397849454" height="201.34408602150546" width="5" fill="black"><title>BLACK: 35</title></rect><rect x="0" y="140.05376344086017" height="419.94623655913983" width="5" fill="black"><title>MALE: 73</title></rect></g><g fill="none" stroke-opacity="1"><g style="mix-blend-mode: multiply;"><path d="M5,157.3118279569892C197.5,157.3118279569892,197.5,29.758064516129032,390,29.758064516129032" stroke="#fb8cff" stroke-width="34.516129032258064"/><title>MALE → BLACK HISPANIC: 6</title></g><g style="mix-blend-mode: multiply;"><path d="M5,485.2150537634408C197.5,485.2150537634408,197.5,492.7150537634408,390,492.7150537634408" stroke="#fb8cff" stroke-width="149.56989247311827"/><title>MALE → BLACK: 26</title></g><g style="mix-blend-mode: multiply;"><path d="M5,109.16666666666667C197.5,109.16666666666667,197.5,392.0430107526881,390,392.0430107526881" stroke="#bc8ef5" stroke-width="51.774193548387096"/><title>FEMALE → BLACK: 9</title></g><g style="mix-blend-mode: multiply;"><path d="M5,263.73655913978484C197.5,263.73655913978484,197.5,157.68817204301075,390,157.68817204301075" stroke="#fb8cff" stroke-width="109.30107526881721"/><title>MALE → WHITE: 19</title></g><g style="mix-blend-mode: multiply;"><path d="M5,25.752688172043012C197.5,25.752688172043012,197.5,97.28494623655912,390,97.28494623655912" stroke="#bc8ef5" stroke-width="11.505376344086022"/><title>FEMALE → WHITE: 2</title></g><g style="mix-blend-mode: multiply;"><path d="M5,364.40860215053755C197.5,364.40860215053755,197.5,315.1344086021505,390,315.1344086021505" stroke="#fb8cff" stroke-width="92.04301075268818"/><title>MALE → WHITE HISPANIC: 16</title></g><g style="mix-blend-mode: multiply;"><path d="M5,57.39247311827957C197.5,57.39247311827957,197.5,243.22580645161287,390,243.22580645161287" stroke="#bc8ef5" stroke-width="51.774193548387096"/><title>FEMALE → WHITE HISPANIC: 9</title></g><g style="mix-blend-mode: multiply;"><path d="M5,191.82795698924724C197.5,191.82795698924724,197.5,69.2741935483871,390,69.2741935483871" stroke="#fb8cff" stroke-width="34.516129032258064"/><title>MALE → ASIAN / PACIFIC ISLANDER: 6</title></g><g style="mix-blend-mode: multiply;"><path d="M395,29.758064516129036C587.5,29.758064516129036,587.5,201.82795698924733,780,201.82795698924733" stroke="#f2cf63" stroke-width="11.505376344086022"/><title>BLACK HISPANIC → ANTI-ASIAN: 2</title></g><g style="mix-blend-mode: multiply;"><path d="M395,455.32258064516117C587.5,455.32258064516117,587.5,279.48924731182797,780,279.48924731182797" stroke="#f291b5" stroke-width="63.27956989247312"/><title>BLACK → ANTI-ASIAN: 11</title></g><g style="mix-blend-mode: multiply;"><path d="M395,120.29569892473116C587.5,120.29569892473116,587.5,213.33333333333334,780,213.33333333333334" stroke="#04d9d9" stroke-width="11.505376344086022"/><title>WHITE → ANTI-ASIAN: 2</title></g><g style="mix-blend-mode: multiply;"><path d="M395,283.4946236559139C587.5,283.4946236559139,587.5,233.46774193548387,780,233.46774193548387" stroke="#e377c2" stroke-width="28.763440860215056"/><title>WHITE HISPANIC → ANTI-ASIAN: 5</title></g><g style="mix-blend-mode: multiply;"><path d="M395,260.4838709677419C587.5,260.4838709677419,587.5,182.44623655913978,780,182.44623655913978" stroke="#e377c2" stroke-width="17.258064516129032"/><title>WHITE HISPANIC → ANTI-BLACK: 3</title></g><g style="mix-blend-mode: multiply;"><path d="M395,63.52150537634408C587.5,63.52150537634408,587.5,156.55913978494624,780,156.55913978494624" stroke="#6f8abf" stroke-width="11.505376344086022"/><title>ASIAN / PACIFIC ISLANDER → ANTI-BLACK: 2</title></g><g style="mix-blend-mode: multiply;"><path d="M395,108.79032258064514C587.5,108.79032258064514,587.5,168.06451612903226,780,168.06451612903226" stroke="#04d9d9" stroke-width="11.505376344086022"/><title>WHITE → ANTI-BLACK: 2</title></g><g style="mix-blend-mode: multiply;"><path d="M395,389.1666666666666C587.5,389.1666666666666,587.5,61.021505376344074,780,61.021505376344074" stroke="#f291b5" stroke-width="23.010752688172044"/><title>BLACK → ANTI-FEMALE: 4</title></g><g style="mix-blend-mode: multiply;"><path d="M395,220.21505376344084C587.5,220.21505376344084,587.5,2.8763440860215055,780,2.8763440860215055" stroke="#e377c2" stroke-width="5.752688172043011"/><title>WHITE HISPANIC → ANTI-ISLAMIC(MUSLIM): 1</title></g><g style="mix-blend-mode: multiply;"><path d="M395,369.03225806451604C587.5,369.03225806451604,587.5,8.629032258064516,780,8.629032258064516" stroke="#f291b5" stroke-width="5.752688172043011"/><title>BLACK → ANTI-ISLAMIC(MUSLIM): 1</title></g><g style="mix-blend-mode: multiply;"><path d="M395,180.69892473118279C587.5,180.69892473118279,587.5,485.0806451612903,780,485.0806451612903" stroke="#04d9d9" stroke-width="63.27956989247312"/><title>WHITE → ANTI-JEWISH: 11</title></g><g style="mix-blend-mode: multiply;"><path d="M395,553.1182795698924C587.5,553.1182795698924,587.5,565.6182795698925,780,565.6182795698925" stroke="#f291b5" stroke-width="28.763440860215056"/><title>BLACK → ANTI-JEWISH: 5</title></g><g style="mix-blend-mode: multiply;"><path d="M395,77.9032258064516C587.5,77.9032258064516,587.5,444.81182795698925,780,444.81182795698925" stroke="#6f8abf" stroke-width="17.258064516129032"/><title>ASIAN / PACIFIC ISLANDER → ANTI-JEWISH: 3</title></g><g style="mix-blend-mode: multiply;"><path d="M395,343.8978494623655C587.5,343.8978494623655,587.5,533.9784946236559,780,533.9784946236559" stroke="#e377c2" stroke-width="34.516129032258064"/><title>WHITE HISPANIC → ANTI-JEWISH: 6</title></g><g style="mix-blend-mode: multiply;"><path d="M395,228.84408602150535C587.5,228.84408602150535,587.5,22.25806451612903,780,22.25806451612903" stroke="#e377c2" stroke-width="11.505376344086022"/><title>WHITE HISPANIC → ANTI-LGBT(MIXED GROUP): 2</title></g><g style="mix-blend-mode: multiply;"><path d="M395,512.8494623655913C587.5,512.8494623655913,587.5,405.29569892473114,780,405.29569892473114" stroke="#f291b5" stroke-width="51.774193548387096"/><title>BLACK → ANTI-MALE HOMOSEXUAL(GAY): 9</title></g><g style="mix-blend-mode: multiply;"><path d="M395,312.25806451612897C587.5,312.25806451612897,587.5,365.0268817204301,780,365.0268817204301" stroke="#e377c2" stroke-width="28.763440860215056"/><title>WHITE HISPANIC → ANTI-MALE HOMOSEXUAL(GAY): 5</title></g><g style="mix-blend-mode: multiply;"><path d="M395,137.5537634408602C587.5,137.5537634408602,587.5,339.13978494623655,780,339.13978494623655" stroke="#04d9d9" stroke-width="23.010752688172044"/><title>WHITE → ANTI-MALE HOMOSEXUAL(GAY): 4</title></g><g style="mix-blend-mode: multiply;"><path d="M395,41.263440860215056C587.5,41.263440860215056,587.5,321.8817204301075,780,321.8817204301075" stroke="#f2cf63" stroke-width="11.505376344086022"/><title>BLACK HISPANIC → ANTI-MALE HOMOSEXUAL(GAY): 2</title></g><g style="mix-blend-mode: multiply;"><path d="M395,374.78494623655905C587.5,374.78494623655905,587.5,41.639784946236546,780,41.639784946236546" stroke="#f291b5" stroke-width="5.752688172043011"/><title>BLACK → ANTI-TRANSGENDER: 1</title></g><g style="mix-blend-mode: multiply;"><path d="M395,94.40860215053762C587.5,94.40860215053762,587.5,35.88709677419354,780,35.88709677419354" stroke="#04d9d9" stroke-width="5.752688172043011"/><title>WHITE → ANTI-TRANSGENDER: 1</title></g><g style="mix-blend-mode: multiply;"><path d="M395,406.4247311827956C587.5,406.4247311827956,587.5,100.53763440860212,780,100.53763440860212" stroke="#f291b5" stroke-width="11.505376344086022"/><title>BLACK → ANTI-WHITE: 2</title></g><g style="mix-blend-mode: multiply;"><path d="M395,15.376344086021506C587.5,15.376344086021506,587.5,80.40322580645159,780,80.40322580645159" stroke="#f2cf63" stroke-width="5.752688172043011"/><title>BLACK HISPANIC → ANTI-WHITE: 1</title></g><g style="mix-blend-mode: multiply;"><path d="M395,240.34946236559136C587.5,240.34946236559136,587.5,89.0322580645161,780,89.0322580645161" stroke="#e377c2" stroke-width="11.505376344086022"/><title>WHITE HISPANIC → ANTI-WHITE: 2</title></g><g style="mix-blend-mode: multiply;"><path d="M395,21.129032258064516C587.5,21.129032258064516,587.5,114.16666666666669,780,114.16666666666669" stroke="#f2cf63" stroke-width="5.752688172043011"/><title>BLACK HISPANIC → OTHER: 1</title></g><g style="mix-blend-mode: multiply;"><path d="M395,417.9301075268816C587.5,417.9301075268816,587.5,140.05376344086022,780,140.05376344086022" stroke="#f291b5" stroke-width="11.505376344086022"/><title>BLACK → OTHER: 2</title></g><g style="mix-blend-mode: multiply;"><path d="M395,54.89247311827957C587.5,54.89247311827957,587.5,119.9193548387097,780,119.9193548387097" stroke="#6f8abf" stroke-width="5.752688172043011"/><title>ASIAN / PACIFIC ISLANDER → OTHER: 1</title></g><g style="mix-blend-mode: multiply;"><path d="M395,100.16129032258063C587.5,100.16129032258063,587.5,125.6720430107527,780,125.6720430107527" stroke="#04d9d9" stroke-width="5.752688172043011"/><title>WHITE → OTHER: 1</title></g><g style="mix-blend-mode: multiply;"><path d="M395,248.97849462365588C587.5,248.97849462365588,587.5,131.4247311827957,780,131.4247311827957" stroke="#e377c2" stroke-width="5.752688172043011"/><title>WHITE HISPANIC → OTHER: 1</title></g></g><g><text x="776" y="5.752688172043008" text-anchor="end"><tspan alignment-baseline="middle" x="776" style="font-family: Arial, sans-serif; font-size: 10px; fill: black; font-weight: bold;">ANTI-ISLAMIC(MUSLIM)</tspan></text><text x="776" y="22.258064516129025" text-anchor="end"><tspan alignment-baseline="middle" x="776" style="font-family: Arial, sans-serif; font-size: 10px; fill: black; font-weight: bold;">ANTI-LGBT(MIXED GROUP)</tspan></text><text x="776" y="38.76344086021504" text-anchor="end"><tspan alignment-baseline="middle" x="776" style="font-family: Arial, sans-serif; font-size: 10px; fill: black; font-weight: bold;">ANTI-TRANSGENDER</tspan></text><text x="776" y="61.02150537634407" text-anchor="end"><tspan alignment-baseline="middle" x="776" style="font-family: Arial, sans-serif; font-size: 10px; fill: black; font-weight: bold;">ANTI-FEMALE</tspan></text><text x="776" y="91.90860215053763" text-anchor="end"><tspan alignment-baseline="middle" x="776" style="font-family: Arial, sans-serif; font-size: 10px; fill: black; font-weight: bold;">ANTI-WHITE</tspan></text><text x="399" y="29.758064516129032" text-anchor="start"><tspan alignment-baseline="middle" x="399" style="font-family: Arial, sans-serif; font-size: 10px; fill: black; font-weight: bold;">BLACK HISPANIC</tspan></text><text x="399" y="69.27419354838709" text-anchor="start"><tspan alignment-baseline="middle" x="399" style="font-family: Arial, sans-serif; font-size: 10px; fill: black; font-weight: bold;">ASIAN / PACIFIC ISLANDER</tspan></text><text x="776" y="128.5483870967742" text-anchor="end"><tspan alignment-baseline="middle" x="776" style="font-family: Arial, sans-serif; font-size: 10px; fill: black; font-weight: bold;">OTHER</tspan></text><text x="776" y="170.94086021505376" text-anchor="end"><tspan alignment-baseline="middle" x="776" style="font-family: Arial, sans-serif; font-size: 10px; fill: black; font-weight: bold;">ANTI-BLACK</tspan></text><text x="9" y="77.52688172043008" text-anchor="start"><tspan alignment-baseline="middle" x="9" style="font-family: Arial, sans-serif; font-size: 10px; fill: black; font-weight: bold;">FEMALE</tspan></text><text x="776" y="253.60215053763443" text-anchor="end"><tspan alignment-baseline="middle" x="776" style="font-family: Arial, sans-serif; font-size: 10px; fill: black; font-weight: bold;">ANTI-ASIAN</tspan></text><text x="776" y="373.6559139784946" text-anchor="end"><tspan alignment-baseline="middle" x="776" style="font-family: Arial, sans-serif; font-size: 10px; fill: black; font-weight: bold;">ANTI-MALE HOMOSEXUAL(GAY)</tspan></text><text x="399" y="151.93548387096772" text-anchor="start"><tspan alignment-baseline="middle" x="399" style="font-family: Arial, sans-serif; font-size: 10px; fill: black; font-weight: bold;">WHITE</tspan></text><text x="399" y="289.24731182795693" text-anchor="start"><tspan alignment-baseline="middle" x="399" style="font-family: Arial, sans-serif; font-size: 10px; fill: black; font-weight: bold;">WHITE HISPANIC</tspan></text><text x="776" y="508.0913978494624" text-anchor="end"><tspan alignment-baseline="middle" x="776" style="font-family: Arial, sans-serif; font-size: 10px; fill: black; font-weight: bold;">ANTI-JEWISH</tspan></text><text x="399" y="466.82795698924724" text-anchor="start"><tspan alignment-baseline="middle" x="399" style="font-family: Arial, sans-serif; font-size: 10px; fill: black; font-weight: bold;">BLACK</tspan></text><text x="9" y="350.0268817204301" text-anchor="start"><tspan alignment-baseline="middle" x="9" style="font-family: Arial, sans-serif; font-size: 10px; fill: black; font-weight: bold;">MALE</tspan></text></g><g><text x="782.5" y="-4" text-anchor="middle" style="font-family: Arial, sans-serif; font-size: 12px; fill: rgb(123, 123, 123); font-weight: bold;">Bias-Motivation</text><text x="392.5" y="8.5" text-anchor="middle" style="font-family: Arial, sans-serif; font-size: 12px; fill: rgb(123, 123, 123); font-weight: bold;">Race</text><text x="2.5" y="16" text-anchor="middle" style="font-family: Arial, sans-serif; font-size: 12px; fill: rgb(123, 123, 123); font-weight: bold;">Gender</text></g></g></svg>